<?xml version="1.0" encoding="UTF-8"?>
<svg id="Layer_5" data-name="Layer 5" xmlns="http://www.w3.org/2000/svg" viewBox="0 0 50 50">
  <defs>
    <style>
      .cls-1 {
        fill: #ff5805;
      }

      .cls-2 {
        fill: #ffe9d6;
      }

      .cls-3 {
        fill: #ff9800;
      }

      .cls-4 {
        fill: #2d375e;
      }
    </style>
  </defs>
  <path class="cls-2" d="m50,25c0,6.76-2.67,12.87-7.04,17.38-3.28,3.39-7.51,5.85-12.27,6.96-1.37.32-2.77.53-4.22.6-.05,0-.11.02-.17.02-.44.03-.88.04-1.31.04-6.12,0-11.71-2.19-16.05-5.84C3.48,39.58,0,32.7,0,25,0,11.19,11.19,0,25,0s25,11.19,25,25Z"/>
  <g>
    <path class="cls-3" d="m30.86,12.87v15.92h-2.19c-1.21,0-2.19.98-2.19,2.19v18.97c-.05,0-.11.02-.17.02-.44.03-.88.04-1.31.04-6.12,0-11.71-2.19-16.05-5.84V12.87c0-1.86,1.51-3.37,3.37-3.37h15.19c1.86,0,3.36,1.51,3.36,3.37Z"/>
    <rect class="cls-4" x="13.23" y="15.12" width="13.34" height="3.15" rx="1.58" ry="1.58"/>
    <rect class="cls-4" x="13.23" y="20.38" width="13.34" height="3.15" rx="1.58" ry="1.58"/>
    <path class="cls-1" d="m30.69,28.79v20.55c-1.37.32-2.77.53-4.22.6-.05,0-.11.02-.17.02v-18.98c0-1.21.98-2.19,2.19-2.19h2.19Z"/>
    <path class="cls-4" d="m42.96,30.98v11.4c-3.28,3.39-7.51,5.85-12.27,6.96v-20.55h10.08c1.21,0,2.19.98,2.19,2.19Z"/>
  </g>
</svg>